<?xml version="1.0" standalone="no"?><!DOCTYPE svg PUBLIC "-//W3C//DTD SVG 1.1//EN" "http://www.w3.org/Graphics/SVG/1.1/DTD/svg11.dtd"><svg t="1652089887685" class="icon" viewBox="0 0 1334 1024" version="1.1" xmlns="http://www.w3.org/2000/svg" p-id="23507" xmlns:xlink="http://www.w3.org/1999/xlink" width="260.546875" height="200"><defs><style type="text/css">@font-face { font-family: feedback-iconfont; src: url("//at.alicdn.com/t/font_1031158_u69w8yhxdu.woff2?t=1630033759944") format("woff2"), url("//at.alicdn.com/t/font_1031158_u69w8yhxdu.woff?t=1630033759944") format("woff"), url("//at.alicdn.com/t/font_1031158_u69w8yhxdu.ttf?t=1630033759944") format("truetype"); }
</style></defs><path d="M129.998 750.074h17.961a8.888 8.888 0 0 1 8.718 8.887 8.755 8.755 0 0 1-8.718 8.886H130v17.961a8.887 8.887 0 0 1-8.887 8.718 8.746 8.746 0 0 1-8.896-8.718v-17.96H94.264a8.887 8.887 0 0 1-8.718-8.887c0-4.913 3.824-8.896 8.718-8.896h17.952v-17.952a8.887 8.887 0 0 1 8.896-8.718c4.903 0 8.886 3.824 8.886 8.718v17.952z m629.39-723.33h17.962a8.888 8.888 0 0 1 8.718 8.887 8.755 8.755 0 0 1-8.718 8.887h-17.961v17.96a8.887 8.887 0 0 1-8.887 8.718 8.746 8.746 0 0 1-8.896-8.717V44.518h-17.951a8.887 8.887 0 0 1-8.718-8.887c0-4.913 3.823-8.896 8.718-8.896h17.951V8.783a8.887 8.887 0 0 1 8.896-8.717c4.904 0 8.887 3.823 8.887 8.717v17.952z m548.557 648.179v-17.961a8.746 8.746 0 0 0-8.896-8.708 8.887 8.887 0 0 0-8.886 8.708v17.961H1272.2a8.746 8.746 0 0 0-8.717 8.887c0 4.772 3.917 8.896 8.717 8.896h17.962v17.96c0 4.886 3.983 8.709 8.886 8.709a8.887 8.887 0 0 0 8.896-8.708v-17.961h17.952c4.885 0 8.717-3.983 8.717-8.896a8.887 8.887 0 0 0-8.717-8.887h-17.952z m-645.97 293.39H214.326a17.707 17.707 0 0 1-17.726-17.783c0-9.807 8.05-17.773 17.726-17.773h80.637a70.66 70.66 0 0 1-9.46-35.48V381.438a71.074 71.074 0 0 1 71.206-71.037h53.264v-17.867a71.074 71.074 0 0 1 71.205-71.036h426.605a71.037 71.037 0 0 1 71.206 71.036v515.838a70.689 70.689 0 0 1-9.488 35.471h98.373a17.754 17.754 0 0 1 17.801 17.783 17.754 17.754 0 0 1-17.782 17.782H854.51v17.867a70.689 70.689 0 0 1-9.478 35.481h9.535c9.77 0 17.726 7.891 17.726 17.773a17.83 17.83 0 0 1-17.726 17.783h-93.554a35.462 35.462 0 0 1-5.448 43.306 35.471 35.471 0 0 1-50.295 0l-43.297-43.306z m65.005-35.556h56.551a35.453 35.453 0 0 0 35.415-35.66V380.613c0-19.2-15.359-34.635-34.316-34.635H355.386c-18.957 0-34.316 15.5-34.316 34.635v516.495c0 19.69 15.998 35.66 35.406 35.66H626.39l-9.14-9.16a35.49 35.49 0 0 1-9.244-34.381L591.22 872.43c-52.295 38.928-125.774 30.924-168.46-18.365-42.686-49.28-40.112-123.154 5.89-169.354 46.143-46.311 120.242-49.036 169.653-6.228 49.412 42.79 57.303 116.522 18.065 168.809l16.806 16.796a35.443 35.443 0 0 1 34.372 9.234l59.435 59.445z m127.531-88.913h53.508a35.584 35.584 0 0 0 35.406-35.565v-515.66a35.453 35.453 0 0 0-35.415-35.564H480.935a35.584 35.584 0 0 0-35.387 35.565v17.782h337.777a71.037 71.037 0 0 1 71.205 71.037v462.405zM227.713 190.386h26.491c7.478 0 13.527 5.918 13.527 13.34a13.433 13.433 0 0 1-13.527 13.339h-26.49v26.49c0 7.469-5.919 13.509-13.34 13.509a13.433 13.433 0 0 1-13.34-13.508v-26.491h-26.49a13.386 13.386 0 0 1-13.508-13.34c0-7.364 6.04-13.339 13.508-13.339h26.49v-26.49c0-7.469 5.928-13.518 13.34-13.518 7.365 0 13.34 6.05 13.34 13.517v26.491zM18.783 950.54c0-9.807 8.051-17.773 17.727-17.773H143.32c9.77 0 17.726 7.89 17.726 17.773a17.83 17.83 0 0 1-17.726 17.782H36.51a17.707 17.707 0 0 1-17.726-17.782z m560.76-114.934A88.923 88.923 0 1 0 453.787 709.84a88.923 88.923 0 0 0 125.756 125.756zM392.19 417.108c0-9.826 7.957-17.783 17.764-17.792h195.618a17.783 17.783 0 0 1 0 35.565h-195.6a17.726 17.726 0 0 1-17.782-17.783z m0 88.903c0-9.816 7.92-17.782 17.66-17.782H694.6c9.751 0 17.66 7.89 17.66 17.782a17.726 17.726 0 0 1-17.66 17.774H409.852a17.68 17.68 0 0 1-17.66-17.774z m0 88.904a17.754 17.754 0 0 1 17.755-17.782H534.48c9.798 0 17.755 7.89 17.755 17.782a17.754 17.754 0 0 1-17.755 17.783H409.936a17.707 17.707 0 0 1-17.745-17.783zM54.36 488.22a53.348 53.348 0 1 1 0-106.695 53.348 53.348 0 0 1 0 106.695z m0-26.678a26.679 26.679 0 1 0 0-53.339 26.679 26.679 0 0 0 0 53.339z m1102.448-80.017a53.348 53.348 0 1 1 0-106.687 53.348 53.348 0 0 1 0 106.687z m0-26.67a26.679 26.679 0 1 0 0.01-53.348 26.679 26.679 0 0 0-0.01 53.358z" p-id="23508"></path></svg>